<svg xmlns="http://www.w3.org/2000/svg" width="24" height="24" viewBox="0 0 24 24">
  <!-- Ears -->
  <rect x="5" y="3" width="4" height="4" fill="#ff6b6b" rx="1"/>
  <rect x="15" y="3" width="4" height="4" fill="#ff6b6b" rx="1"/>
  <rect x="6" y="4" width="2" height="2" fill="#ffd93d"/>
  <rect x="16" y="4" width="2" height="2" fill="#ffd93d"/>
  <!-- Head -->
  <rect x="5" y="6" width="14" height="10" fill="#ff6b6b" rx="1"/>
  <!-- Eyes -->
  <rect x="8" y="9" width="2" height="2" fill="#fff"/>
  <rect x="14" y="9" width="2" height="2" fill="#fff"/>
  <rect x="9" y="9" width="1" height="2" fill="#1a1b23"/>
  <rect x="15" y="9" width="1" height="2" fill="#1a1b23"/>
  <!-- Nose -->
  <rect x="11" y="11" width="2" height="1" fill="#1a1b23"/>
  <!-- Body -->
  <rect x="6" y="16" width="12" height="7" fill="#ff6b6b" rx="1"/>
  <rect x="4" y="17" width="2" height="4" fill="#ff6b6b" rx="1"/>
  <rect x="18" y="17" width="2" height="4" fill="#ff6b6b" rx="1"/>
</svg>
